<?xml version="1.0" encoding="UTF-8"?>
<!DOCTYPE svg PUBLIC "-//W3C//DTD SVG 1.1//EN" "http://www.w3.org/Graphics/SVG/1.1/DTD/svg11.dtd">
<!-- Creator: CorelDRAW 2020 (64-Bit) -->
<svg xmlns="http://www.w3.org/2000/svg" xml:space="preserve" width="21.6748mm" height="21.6748mm" version="1.1" style="shape-rendering:geometricPrecision; text-rendering:geometricPrecision; image-rendering:optimizeQuality; fill-rule:evenodd; clip-rule:evenodd"
viewBox="0 0 411.37 411.37"
 xmlns:xlink="http://www.w3.org/1999/xlink"
 xmlns:xodm="http://www.corel.com/coreldraw/odm/2003">
 <defs>
  <style type="text/css">
   <![CDATA[
    .fil2 {fill:#246DFF}
    .fil1 {fill:#45BAFF}
    .fil0 {fill:white}
   ]]>
  </style>
 </defs>
 <g id="Capa_x0020_1">
  <metadata id="CorelCorpID_0Corel-Layer"/>
  <circle class="fil0" cx="205.69" cy="205.69" r="205.69"/>
  <path class="fil1" d="M193.02 34.54l-6.82 0.06c-8.42,1.77 -10.29,7.76 -16.9,17.27l-114.09 163.27c-3.88,5.65 -11.06,14.59 -13.52,21.22 -7.76,20.88 6.58,38.34 22.98,42.8 8.44,2.29 123.24,1.52 140.34,1.14l-0.13 -65.45 -66.78 0.03c1,-3.53 52.09,-75.97 60.24,-87.41 1.46,-2.05 5.8,-7.38 6.41,-9.73 0.98,-3.78 0.32,-26.04 0.24,-31.52 -0.15,-10.55 0.12,-21.2 0.06,-31.76 -0.07,-12.34 -1.44,-16.12 -12.02,-19.91z"/>
  <path class="fil2" d="M271.71 185.06c-0.79,3.57 -17.04,25.8 -20.65,30.85 -7.19,10.05 -14.04,19.88 -20.92,29.97 -6.96,10.21 -14.57,20.39 -21.29,30.47 -5.88,8.83 -3.76,9.31 -3.91,21.31 -0.1,8.27 -0.11,16.8 -0.01,25.08 0.22,18.7 -3.7,36.88 9.73,41.63 15.56,5.5 22.59,-11.9 28.78,-20.4l42.15 -60.48c14.17,-20.88 27.9,-39.74 42.22,-60.4l31.78 -45.46c3.18,-4.41 7.54,-9.96 9.4,-15.98 4.27,-13.83 -1.44,-28.26 -13.75,-36.46 -12.06,-8.03 -29.41,-5.47 -46.27,-5.64 -17.32,-0.17 -34.69,0.09 -52.02,0.02 -16.72,-0.07 -34.95,-0.65 -51.52,0.08 -1.74,7.79 -0.99,54.95 -0.37,65.37l66.64 0.04z"/>
 </g>
</svg>
